<svg width="54" height="54" xmlns="http://www.w3.org/2000/svg"><path d="M0 27.245C.07 12.352 9.7.49 25.28.012c15.754-.483 28.287 14.26 27.92 30.18-.358 15.509-15.082 26.342-30.605 23.3a4.464 4.464 0 01-.179-.04C8.816 53.314-.066 41.574 0 27.245zm45.202 2.763c.268-11.614-8.844-22.332-19.677-22C14.6 8.343 8.05 16.413 8 27.282c-.049 10.503 6.03 18.36 15.004 18.168l.759-.017.712.263c10.7 1.89 20.49-5.431 20.727-15.688zm-5.05-3.912c-2.058-8.86-8.399-14.41-16.281-13.496-8.409.975-13.825 9.766-11.57 18.14 1.472 5.464 5.654 8.994 12.414 10.944 10.266.883 17.59-6.315 15.437-15.588zm-17.246 23.39c-9.453-2.623-16.009-8.05-18.33-16.666C1.091 19.88 9.514 6.21 22.95 4.653c12.329-1.43 22.088 7.112 24.996 19.633 3.498 15.06-8.778 26.921-24.376 25.325l-.337-.034-.326-.09z" fill="#FFF" fill-rule="nonzero"/></svg>