<svg width="55" height="50" xmlns="http://www.w3.org/2000/svg"><path d="M53.748 8.309c.442-.862.368-1.84-.02-2.65.11-.923-.132-1.86-1.005-2.579l-2.44-2.007c-1.429-1.176-3.667-1.547-5.057 0C38.912 8.099 32.31 14.82 25.464 21.297c-5.089-4.754-10.24-9.443-15.353-14.139-1.795-1.648-4.393-1.131-5.522.833-1.645.816-2.978 1.88-4.08 3.697-.526.865-.485 1.958 0 2.826 3.3 5.92 9.682 11.124 14.929 15.913-.702.629-1.4 1.263-2.115 1.878-7.07 6.07-11.837 9.922-2.991 16.146.12.084.24.066.362.115.17.078.332.133.52.164.058.002.113.012.17.008.183.014.36.06.545.024 4.756-.932 9.18-4.659 13.192-8.763 3.91 3.853 8.072 7.534 12.649 9.718 1.09.52 2.389.217 3.228-.51 1.406.106 2.689-.768 3.333-2.025.095-.058.157-.092.26-.157 2.045-1.277 2.232-3.822.718-5.576-3.417-3.96-7.05-7.724-10.753-11.422C41.224 23.512 49.55 16.486 53.748 8.31z" fill="#FFF" fill-rule="nonzero"/></svg>